<svg xmlns="http://www.w3.org/2000/svg" xmlns:xlink="http://www.w3.org/1999/xlink" width="201pt" height="660pt" viewBox="0.00 0.00 201.00 660.00">
<g id="graph0" class="graph" transform="scale(1 1) rotate(0) translate(4 656.4)">
<title>G</title>
<polygon fill="white" stroke="none" points="-4,4 -4,-656.4 197.47,-656.4 197.47,4 -4,4"/>
<!-- 0 -->
<g id="node1" class="node">
<title>0</title>
<ellipse fill="lightgrey" stroke="black" cx="96.73" cy="-555.66" rx="96.73" ry="96.73"/>
<text xml:space="preserve" text-anchor="middle" x="96.73" y="-570.66" font-family="Times,serif" font-size="50.00">0</text>
<text xml:space="preserve" text-anchor="middle" x="96.73" y="-510.66" font-family="Times,serif" font-size="50.00">(0.74)</text>
</g>
<!-- 1 -->
<g id="node2" class="node">
<title>1</title>
<ellipse fill="orange" stroke="black" cx="96.73" cy="-326.2" rx="96.73" ry="96.73"/>
<text xml:space="preserve" text-anchor="middle" x="96.73" y="-341.2" font-family="Times,serif" font-size="50.00">1</text>
<text xml:space="preserve" text-anchor="middle" x="96.73" y="-281.2" font-family="Times,serif" font-size="50.00">(0.78)</text>
</g>
<!-- 0&#45;&gt;1 -->
<g id="edge1" class="edge">
<title>0-&gt;1</title>
<path fill="none" stroke="black" d="M96.73,-458.53C96.73,-450.62 96.73,-442.59 96.73,-434.6"/>
<polygon fill="black" stroke="black" points="100.23,-434.87 96.73,-424.87 93.23,-434.87 100.23,-434.87"/>
</g>
<!-- 2 -->
<g id="node3" class="node">
<title>2</title>
<ellipse fill="cyan" stroke="black" cx="96.73" cy="-96.73" rx="96.73" ry="96.73"/>
<text xml:space="preserve" text-anchor="middle" x="96.73" y="-111.73" font-family="Times,serif" font-size="50.00">2</text>
<text xml:space="preserve" text-anchor="middle" x="96.73" y="-51.73" font-family="Times,serif" font-size="50.00">(0.83)</text>
</g>
<!-- 1&#45;&gt;2 -->
<g id="edge2" class="edge">
<title>1-&gt;2</title>
<path fill="none" stroke="black" d="M96.73,-229.06C96.73,-221.15 96.73,-213.12 96.73,-205.14"/>
<polygon fill="black" stroke="black" points="100.23,-205.4 96.73,-195.4 93.23,-205.4 100.23,-205.4"/>
</g>
</g>
</svg>