<svg xmlns="http://www.w3.org/2000/svg" xmlns:xlink="http://www.w3.org/1999/xlink" width="517pt" height="1119pt" viewBox="0.00 0.00 517.00 1119.00">
<g id="graph0" class="graph" transform="scale(1 1) rotate(0) translate(4 1115.33)">
<title>G</title>
<polygon fill="white" stroke="none" points="-4,4 -4,-1115.33 513.47,-1115.33 513.47,4 -4,4"/>
<!-- 0 -->
<g id="node1" class="node">
<title>0</title>
<ellipse fill="lightgrey" stroke="black" cx="306.73" cy="-1014.59" rx="96.73" ry="96.73"/>
<text xml:space="preserve" text-anchor="middle" x="306.73" y="-1029.59" font-family="Times,serif" font-size="50.00">0</text>
<text xml:space="preserve" text-anchor="middle" x="306.73" y="-969.59" font-family="Times,serif" font-size="50.00">(0.83)</text>
</g>
<!-- 1 -->
<g id="node2" class="node">
<title>1</title>
<ellipse fill="orange" stroke="black" cx="306.73" cy="-785.13" rx="96.73" ry="96.73"/>
<text xml:space="preserve" text-anchor="middle" x="306.73" y="-800.13" font-family="Times,serif" font-size="50.00">1</text>
<text xml:space="preserve" text-anchor="middle" x="306.73" y="-740.13" font-family="Times,serif" font-size="50.00">(0.83)</text>
</g>
<!-- 0&#45;&gt;1 -->
<g id="edge1" class="edge">
<title>0-&gt;1</title>
<path fill="none" stroke="black" d="M306.73,-917.46C306.73,-909.55 306.73,-901.52 306.73,-893.53"/>
<polygon fill="black" stroke="black" points="310.23,-893.8 306.73,-883.8 303.23,-893.8 310.23,-893.8"/>
</g>
<!-- 2 -->
<g id="node3" class="node">
<title>2</title>
<ellipse fill="cyan" stroke="black" cx="201.73" cy="-555.66" rx="96.73" ry="96.73"/>
<text xml:space="preserve" text-anchor="middle" x="201.73" y="-570.66" font-family="Times,serif" font-size="50.00">2</text>
<text xml:space="preserve" text-anchor="middle" x="201.73" y="-510.66" font-family="Times,serif" font-size="50.00">(0.85)</text>
</g>
<!-- 1&#45;&gt;2 -->
<g id="edge2" class="edge">
<title>1-&gt;2</title>
<path fill="none" stroke="black" d="M266.44,-696.84C260.02,-682.92 253.33,-668.45 246.81,-654.32"/>
<polygon fill="black" stroke="black" points="250.1,-653.09 242.73,-645.47 243.74,-656.02 250.1,-653.09"/>
</g>
<!-- 5 -->
<g id="node6" class="node">
<title>5</title>
<ellipse fill="orange" stroke="black" cx="412.73" cy="-555.66" rx="96.73" ry="96.73"/>
<text xml:space="preserve" text-anchor="middle" x="412.73" y="-570.66" font-family="Times,serif" font-size="50.00">5</text>
<text xml:space="preserve" text-anchor="middle" x="412.73" y="-510.66" font-family="Times,serif" font-size="50.00">(0.81)</text>
</g>
<!-- 1&#45;&gt;5 -->
<g id="edge5" class="edge">
<title>1-&gt;5</title>
<path fill="none" stroke="black" d="M347.41,-696.84C353.94,-682.82 360.74,-668.24 367.37,-654.01"/>
<polygon fill="black" stroke="black" points="370.47,-655.64 371.52,-645.1 364.13,-652.68 370.47,-655.64"/>
</g>
<!-- 3 -->
<g id="node4" class="node">
<title>3</title>
<ellipse fill="orange" stroke="black" cx="201.73" cy="-326.2" rx="96.73" ry="96.73"/>
<text xml:space="preserve" text-anchor="middle" x="201.73" y="-341.2" font-family="Times,serif" font-size="50.00">3</text>
<text xml:space="preserve" text-anchor="middle" x="201.73" y="-281.2" font-family="Times,serif" font-size="50.00">(0.82)</text>
</g>
<!-- 2&#45;&gt;3 -->
<g id="edge3" class="edge">
<title>2-&gt;3</title>
<path fill="none" stroke="black" d="M201.73,-458.53C201.73,-450.62 201.73,-442.59 201.73,-434.6"/>
<polygon fill="black" stroke="black" points="205.23,-434.87 201.73,-424.87 198.23,-434.87 205.23,-434.87"/>
</g>
<!-- 4 -->
<g id="node5" class="node">
<title>4</title>
<ellipse fill="orange" stroke="black" cx="96.73" cy="-96.73" rx="96.73" ry="96.73"/>
<text xml:space="preserve" text-anchor="middle" x="96.73" y="-111.73" font-family="Times,serif" font-size="50.00">4</text>
<text xml:space="preserve" text-anchor="middle" x="96.73" y="-51.73" font-family="Times,serif" font-size="50.00">(0.81)</text>
</g>
<!-- 3&#45;&gt;4 -->
<g id="edge4" class="edge">
<title>3-&gt;4</title>
<path fill="none" stroke="black" d="M161.44,-237.9C155.02,-223.99 148.33,-209.52 141.81,-195.39"/>
<polygon fill="black" stroke="black" points="145.1,-194.16 137.73,-186.54 138.74,-197.09 145.1,-194.16"/>
</g>
<!-- 6 -->
<g id="node7" class="node">
<title>6</title>
<ellipse fill="lightgrey" stroke="black" cx="307.73" cy="-96.73" rx="96.73" ry="96.73"/>
<text xml:space="preserve" text-anchor="middle" x="307.73" y="-111.73" font-family="Times,serif" font-size="50.00">6</text>
<text xml:space="preserve" text-anchor="middle" x="307.73" y="-51.73" font-family="Times,serif" font-size="50.00">(0.81)</text>
</g>
<!-- 3&#45;&gt;6 -->
<g id="edge6" class="edge">
<title>3-&gt;6</title>
<path fill="none" stroke="black" d="M242.41,-237.9C248.94,-223.89 255.74,-209.31 262.37,-195.08"/>
<polygon fill="black" stroke="black" points="265.47,-196.71 266.52,-186.16 259.13,-193.75 265.47,-196.71"/>
</g>
</g>
</svg>