<svg xmlns="http://www.w3.org/2000/svg" xmlns:xlink="http://www.w3.org/1999/xlink" width="517pt" height="1349pt" viewBox="0.00 0.00 517.00 1349.00">
<g id="graph0" class="graph" transform="scale(1 1) rotate(0) translate(4 1344.79)">
<title>G</title>
<polygon fill="white" stroke="none" points="-4,4 -4,-1344.79 513.47,-1344.79 513.47,4 -4,4"/>
<!-- 0 -->
<g id="node1" class="node">
<title>0</title>
<ellipse fill="orange" stroke="black" cx="306.73" cy="-1244.06" rx="96.73" ry="96.73"/>
<text xml:space="preserve" text-anchor="middle" x="306.73" y="-1259.06" font-family="Times,serif" font-size="50.00">0</text>
<text xml:space="preserve" text-anchor="middle" x="306.73" y="-1199.06" font-family="Times,serif" font-size="50.00">(0.79)</text>
</g>
<!-- 1 -->
<g id="node2" class="node">
<title>1</title>
<ellipse fill="orange" stroke="black" cx="306.73" cy="-1014.59" rx="96.73" ry="96.73"/>
<text xml:space="preserve" text-anchor="middle" x="306.73" y="-1029.59" font-family="Times,serif" font-size="50.00">1</text>
<text xml:space="preserve" text-anchor="middle" x="306.73" y="-969.59" font-family="Times,serif" font-size="50.00">(0.80)</text>
</g>
<!-- 0&#45;&gt;1 -->
<g id="edge1" class="edge">
<title>0-&gt;1</title>
<path fill="none" stroke="black" d="M306.73,-1146.92C306.73,-1139.01 306.73,-1130.98 306.73,-1123"/>
<polygon fill="black" stroke="black" points="310.23,-1123.27 306.73,-1113.27 303.23,-1123.27 310.23,-1123.27"/>
</g>
<!-- 2 -->
<g id="node3" class="node">
<title>2</title>
<ellipse fill="cyan" stroke="black" cx="201.73" cy="-785.13" rx="96.73" ry="96.73"/>
<text xml:space="preserve" text-anchor="middle" x="201.73" y="-800.13" font-family="Times,serif" font-size="50.00">2</text>
<text xml:space="preserve" text-anchor="middle" x="201.73" y="-740.13" font-family="Times,serif" font-size="50.00">(0.82)</text>
</g>
<!-- 1&#45;&gt;2 -->
<g id="edge2" class="edge">
<title>1-&gt;2</title>
<path fill="none" stroke="black" d="M266.44,-926.3C260.02,-912.39 253.33,-897.92 246.81,-883.78"/>
<polygon fill="black" stroke="black" points="250.1,-882.55 242.73,-874.94 243.74,-885.49 250.1,-882.55"/>
</g>
<!-- 5 -->
<g id="node6" class="node">
<title>5</title>
<ellipse fill="lightgrey" stroke="black" cx="412.73" cy="-785.13" rx="96.73" ry="96.73"/>
<text xml:space="preserve" text-anchor="middle" x="412.73" y="-800.13" font-family="Times,serif" font-size="50.00">5</text>
<text xml:space="preserve" text-anchor="middle" x="412.73" y="-740.13" font-family="Times,serif" font-size="50.00">(0.78)</text>
</g>
<!-- 1&#45;&gt;5 -->
<g id="edge5" class="edge">
<title>1-&gt;5</title>
<path fill="none" stroke="black" d="M347.41,-926.3C353.94,-912.29 360.74,-897.71 367.37,-883.48"/>
<polygon fill="black" stroke="black" points="370.47,-885.1 371.52,-874.56 364.13,-882.15 370.47,-885.1"/>
</g>
<!-- 3 -->
<g id="node4" class="node">
<title>3</title>
<ellipse fill="orange" stroke="black" cx="201.73" cy="-555.66" rx="96.73" ry="96.73"/>
<text xml:space="preserve" text-anchor="middle" x="201.73" y="-570.66" font-family="Times,serif" font-size="50.00">3</text>
<text xml:space="preserve" text-anchor="middle" x="201.73" y="-510.66" font-family="Times,serif" font-size="50.00">(0.81)</text>
</g>
<!-- 2&#45;&gt;3 -->
<g id="edge3" class="edge">
<title>2-&gt;3</title>
<path fill="none" stroke="black" d="M201.73,-687.99C201.73,-680.08 201.73,-672.05 201.73,-664.07"/>
<polygon fill="black" stroke="black" points="205.23,-664.33 201.73,-654.33 198.23,-664.33 205.23,-664.33"/>
</g>
<!-- 4 -->
<g id="node5" class="node">
<title>4</title>
<ellipse fill="orange" stroke="black" cx="201.73" cy="-326.2" rx="96.73" ry="96.73"/>
<text xml:space="preserve" text-anchor="middle" x="201.73" y="-341.2" font-family="Times,serif" font-size="50.00">4</text>
<text xml:space="preserve" text-anchor="middle" x="201.73" y="-281.2" font-family="Times,serif" font-size="50.00">(0.77)</text>
</g>
<!-- 3&#45;&gt;4 -->
<g id="edge4" class="edge">
<title>3-&gt;4</title>
<path fill="none" stroke="black" d="M201.73,-458.53C201.73,-450.62 201.73,-442.59 201.73,-434.6"/>
<polygon fill="black" stroke="black" points="205.23,-434.87 201.73,-424.87 198.23,-434.87 205.23,-434.87"/>
</g>
<!-- 6 -->
<g id="node7" class="node">
<title>6</title>
<ellipse fill="lightgrey" stroke="black" cx="96.73" cy="-96.73" rx="96.73" ry="96.73"/>
<text xml:space="preserve" text-anchor="middle" x="96.73" y="-111.73" font-family="Times,serif" font-size="50.00">6</text>
<text xml:space="preserve" text-anchor="middle" x="96.73" y="-51.73" font-family="Times,serif" font-size="50.00">(0.77)</text>
</g>
<!-- 4&#45;&gt;6 -->
<g id="edge6" class="edge">
<title>4-&gt;6</title>
<path fill="none" stroke="black" d="M161.44,-237.9C155.02,-223.99 148.33,-209.52 141.81,-195.39"/>
<polygon fill="black" stroke="black" points="145.1,-194.16 137.73,-186.54 138.74,-197.09 145.1,-194.16"/>
</g>
<!-- 7 -->
<g id="node8" class="node">
<title>7</title>
<ellipse fill="orange" stroke="black" cx="307.73" cy="-96.73" rx="96.73" ry="96.73"/>
<text xml:space="preserve" text-anchor="middle" x="307.73" y="-111.73" font-family="Times,serif" font-size="50.00">7</text>
<text xml:space="preserve" text-anchor="middle" x="307.73" y="-51.73" font-family="Times,serif" font-size="50.00">(0.78)</text>
</g>
<!-- 4&#45;&gt;7 -->
<g id="edge7" class="edge">
<title>4-&gt;7</title>
<path fill="none" stroke="black" d="M242.41,-237.9C248.94,-223.89 255.74,-209.31 262.37,-195.08"/>
<polygon fill="black" stroke="black" points="265.47,-196.71 266.52,-186.16 259.13,-193.75 265.47,-196.71"/>
</g>
</g>
</svg>