<svg xmlns="http://www.w3.org/2000/svg" xmlns:xlink="http://www.w3.org/1999/xlink" width="623pt" height="890pt" viewBox="0.00 0.00 623.00 890.00">
<g id="graph0" class="graph" transform="scale(1 1) rotate(0) translate(4 885.86)">
<title>G</title>
<polygon fill="white" stroke="none" points="-4,4 -4,-885.86 619.47,-885.86 619.47,4 -4,4"/>
<!-- 0 -->
<g id="node1" class="node">
<title>0</title>
<ellipse fill="lightgrey" stroke="black" cx="201.73" cy="-785.13" rx="96.73" ry="96.73"/>
<text xml:space="preserve" text-anchor="middle" x="201.73" y="-800.13" font-family="Times,serif" font-size="50.00">0</text>
<text xml:space="preserve" text-anchor="middle" x="201.73" y="-740.13" font-family="Times,serif" font-size="50.00">(0.71)</text>
</g>
<!-- 1 -->
<g id="node2" class="node">
<title>1</title>
<ellipse fill="lightgrey" stroke="black" cx="96.73" cy="-555.66" rx="96.73" ry="96.73"/>
<text xml:space="preserve" text-anchor="middle" x="96.73" y="-570.66" font-family="Times,serif" font-size="50.00">1</text>
<text xml:space="preserve" text-anchor="middle" x="96.73" y="-510.66" font-family="Times,serif" font-size="50.00">(0.74)</text>
</g>
<!-- 0&#45;&gt;1 -->
<g id="edge1" class="edge">
<title>0-&gt;1</title>
<path fill="none" stroke="black" d="M161.44,-696.84C155.02,-682.92 148.33,-668.45 141.81,-654.32"/>
<polygon fill="black" stroke="black" points="145.1,-653.09 137.73,-645.47 138.74,-656.02 145.1,-653.09"/>
</g>
<!-- 3 -->
<g id="node4" class="node">
<title>3</title>
<ellipse fill="orange" stroke="black" cx="307.73" cy="-555.66" rx="96.73" ry="96.73"/>
<text xml:space="preserve" text-anchor="middle" x="307.73" y="-570.66" font-family="Times,serif" font-size="50.00">3</text>
<text xml:space="preserve" text-anchor="middle" x="307.73" y="-510.66" font-family="Times,serif" font-size="50.00">(0.74)</text>
</g>
<!-- 0&#45;&gt;3 -->
<g id="edge3" class="edge">
<title>0-&gt;3</title>
<path fill="none" stroke="black" d="M242.41,-696.84C248.94,-682.82 255.74,-668.24 262.37,-654.01"/>
<polygon fill="black" stroke="black" points="265.47,-655.64 266.52,-645.1 259.13,-652.68 265.47,-655.64"/>
</g>
<!-- 2 -->
<g id="node3" class="node">
<title>2</title>
<ellipse fill="lightgrey" stroke="black" cx="96.73" cy="-326.2" rx="96.73" ry="96.73"/>
<text xml:space="preserve" text-anchor="middle" x="96.73" y="-341.2" font-family="Times,serif" font-size="50.00">2</text>
<text xml:space="preserve" text-anchor="middle" x="96.73" y="-281.2" font-family="Times,serif" font-size="50.00">(0.74)</text>
</g>
<!-- 1&#45;&gt;2 -->
<g id="edge2" class="edge">
<title>1-&gt;2</title>
<path fill="none" stroke="black" d="M96.73,-458.53C96.73,-450.62 96.73,-442.59 96.73,-434.6"/>
<polygon fill="black" stroke="black" points="100.23,-434.87 96.73,-424.87 93.23,-434.87 100.23,-434.87"/>
</g>
<!-- 7 -->
<g id="node8" class="node">
<title>7</title>
<ellipse fill="orange" stroke="black" cx="96.73" cy="-96.73" rx="96.73" ry="96.73"/>
<text xml:space="preserve" text-anchor="middle" x="96.73" y="-111.73" font-family="Times,serif" font-size="50.00">7</text>
<text xml:space="preserve" text-anchor="middle" x="96.73" y="-51.73" font-family="Times,serif" font-size="50.00">(0.74)</text>
</g>
<!-- 2&#45;&gt;7 -->
<g id="edge7" class="edge">
<title>2-&gt;7</title>
<path fill="none" stroke="black" d="M96.73,-229.06C96.73,-221.15 96.73,-213.12 96.73,-205.14"/>
<polygon fill="black" stroke="black" points="100.23,-205.4 96.73,-195.4 93.23,-205.4 100.23,-205.4"/>
</g>
<!-- 4 -->
<g id="node5" class="node">
<title>4</title>
<ellipse fill="cyan" stroke="black" cx="307.73" cy="-326.2" rx="96.73" ry="96.73"/>
<text xml:space="preserve" text-anchor="middle" x="307.73" y="-341.2" font-family="Times,serif" font-size="50.00">4</text>
<text xml:space="preserve" text-anchor="middle" x="307.73" y="-281.2" font-family="Times,serif" font-size="50.00">(0.78)</text>
</g>
<!-- 3&#45;&gt;4 -->
<g id="edge4" class="edge">
<title>3-&gt;4</title>
<path fill="none" stroke="black" d="M307.73,-458.53C307.73,-450.62 307.73,-442.59 307.73,-434.6"/>
<polygon fill="black" stroke="black" points="311.23,-434.87 307.73,-424.87 304.23,-434.87 311.23,-434.87"/>
</g>
<!-- 8 -->
<g id="node9" class="node">
<title>8</title>
<ellipse fill="lightgrey" stroke="black" cx="518.73" cy="-326.2" rx="96.73" ry="96.73"/>
<text xml:space="preserve" text-anchor="middle" x="518.73" y="-341.2" font-family="Times,serif" font-size="50.00">8</text>
<text xml:space="preserve" text-anchor="middle" x="518.73" y="-281.2" font-family="Times,serif" font-size="50.00">(0.76)</text>
</g>
<!-- 3&#45;&gt;8 -->
<g id="edge8" class="edge">
<title>3-&gt;8</title>
<path fill="none" stroke="black" d="M373.34,-483.94C396.26,-459.23 422.13,-431.34 445.63,-406.01"/>
<polygon fill="black" stroke="black" points="447.9,-408.7 452.14,-398.99 442.77,-403.94 447.9,-408.7"/>
</g>
<!-- 5 -->
<g id="node6" class="node">
<title>5</title>
<ellipse fill="orange" stroke="black" cx="307.73" cy="-96.73" rx="96.73" ry="96.73"/>
<text xml:space="preserve" text-anchor="middle" x="307.73" y="-111.73" font-family="Times,serif" font-size="50.00">5</text>
<text xml:space="preserve" text-anchor="middle" x="307.73" y="-51.73" font-family="Times,serif" font-size="50.00">(0.72)</text>
</g>
<!-- 4&#45;&gt;5 -->
<g id="edge5" class="edge">
<title>4-&gt;5</title>
<path fill="none" stroke="black" d="M307.73,-229.06C307.73,-221.15 307.73,-213.12 307.73,-205.14"/>
<polygon fill="black" stroke="black" points="311.23,-205.4 307.73,-195.4 304.23,-205.4 311.23,-205.4"/>
</g>
<!-- 6 -->
<g id="node7" class="node">
<title>6</title>
<ellipse fill="lightgrey" stroke="black" cx="518.73" cy="-96.73" rx="96.73" ry="96.73"/>
<text xml:space="preserve" text-anchor="middle" x="518.73" y="-111.73" font-family="Times,serif" font-size="50.00">6</text>
<text xml:space="preserve" text-anchor="middle" x="518.73" y="-51.73" font-family="Times,serif" font-size="50.00">(0.72)</text>
</g>
<!-- 4&#45;&gt;6 -->
<g id="edge6" class="edge">
<title>4-&gt;6</title>
<path fill="none" stroke="black" d="M373.34,-254.47C396.26,-229.76 422.13,-201.87 445.63,-176.54"/>
<polygon fill="black" stroke="black" points="447.9,-179.24 452.14,-169.52 442.77,-174.47 447.9,-179.24"/>
</g>
</g>
</svg>